<svg width="20" height="20" viewBox="0 0 20 20" fill="none" xmlns="http://www.w3.org/2000/svg">
<path fill-rule="evenodd" clip-rule="evenodd" d="M12.297 2.18487C13.8209 0.661034 16.2915 0.661034 17.8153 2.18487C19.3391 3.7087 19.3391 6.17932 17.8153 7.70315L9.91089 15.6076C9.4593 16.0592 9.19345 16.3251 8.89771 16.5557C8.54913 16.8276 8.17196 17.0607 7.77289 17.2509C7.43431 17.4123 7.07762 17.5312 6.4717 17.7331L3.69576 18.6584L3.02736 18.8812C2.48523 19.0619 1.88752 18.9208 1.48344 18.5167C1.07935 18.1127 0.938256 17.5149 1.11897 16.9728L2.26707 13.5285C2.46903 12.9226 2.58791 12.5659 2.74927 12.2273C2.93946 11.8282 3.17256 11.451 3.44445 11.1025C3.67513 10.8067 3.94099 10.5409 4.39264 10.0893L12.297 2.18487ZM3.66693 17.3504L6.03486 16.5611C6.69412 16.3413 6.97423 16.2468 7.23511 16.1225C7.55223 15.9714 7.85194 15.7861 8.12894 15.5701C8.35681 15.3924 8.56661 15.1841 9.058 14.6927L15.3659 8.3848C14.7087 8.153 13.862 7.72335 13.0694 6.93075C12.2768 6.13814 11.8472 5.29148 11.6154 4.63428L5.30748 10.9422C4.8161 11.4336 4.60783 11.6434 4.43009 11.8712C4.21404 12.1482 4.02881 12.4479 3.87768 12.7651C3.75334 13.026 3.65884 13.3061 3.43908 13.9653L2.64977 16.3333L3.66693 17.3504ZM12.6293 3.62036C12.6578 3.76616 12.706 3.96436 12.7864 4.19605C12.9673 4.71768 13.3092 5.40273 13.9533 6.04686C14.5975 6.691 15.2825 7.03285 15.8041 7.21383C16.0358 7.29421 16.234 7.34238 16.3798 7.37088L16.9314 6.81926C17.9671 5.78359 17.9671 4.10442 16.9314 3.06875C15.8958 2.03307 14.2166 2.03307 13.1809 3.06875L12.6293 3.62036Z" fill="#BBBBBB"/>
</svg>
